<?xml version="1.0" encoding="UTF-8" standalone="no"?>
<!DOCTYPE svg PUBLIC "-//W3C//DTD SVG 1.1//EN" "http://www.w3.org/Graphics/SVG/1.1/DTD/svg11.dtd">
<svg width="512" height="512" viewBox="0 0 512 512" version="1.1" xmlns="http://www.w3.org/2000/svg">
   <!-- <rect x="0" y="0" width="512" height="512" fill="#FF00CC">
    </rect>-->

    <!-- Grouped paths with transform to fit inside the rectangle -->
    <g transform="translate(140, 140) scale(0.65, 0.65)">
        <path d=" M 148.187 242.441 L 137.64 242.441 C 127.462 242.441 119.183 250.294 119.183 259.95 L 119.183 299.971 C 119.183 309.627 127.462 317.48 137.64 317.48 L 148.187 317.48 C 158.365 317.48 166.644 309.627 166.644 299.971 L 166.644 259.95 C 166.644 250.294 158.365 242.441 148.187 242.441 Z  M 150.824 299.971 C 150.824 301.351 149.642 302.472 148.187 302.472 L 137.64 302.472 C 136.186 302.472 135.004 301.351 135.004 299.971 L 135.004 259.95 C 135.004 258.57 136.186 257.449 137.64 257.449 L 148.187 257.449 C 149.642 257.449 150.824 258.57 150.824 259.95 L 150.824 299.971 Z " fill="rgb(110,110,110)" fill-opacity="0.8"/>
        <path d=" M 84.905 302.472 L 76.995 302.472 L 76.995 249.945 C 76.995 245.8 73.454 242.441 69.085 242.441 L 53.265 242.441 C 48.895 242.441 45.354 245.8 45.354 249.945 C 45.354 254.089 48.895 257.449 53.265 257.449 L 61.175 257.449 L 61.175 302.472 L 53.265 302.472 C 48.895 302.472 45.354 305.832 45.354 309.976 C 45.354 314.121 48.895 317.48 53.265 317.48 L 84.905 317.48 C 89.275 317.48 92.816 314.121 92.816 309.976 C 92.816 305.832 89.275 302.472 84.905 302.472 Z " fill="rgb(110,110,110)"/>
        <path d=" M 295.845 242.441 L 285.298 242.441 C 275.12 242.441 266.841 250.294 266.841 259.95 L 266.841 299.971 C 266.841 309.627 275.12 317.48 285.298 317.48 L 295.845 317.48 C 306.023 317.48 314.302 309.627 314.302 299.971 L 314.302 259.95 C 314.302 250.294 306.023 242.441 295.845 242.441 Z  M 298.482 299.971 C 298.482 301.351 297.299 302.472 295.845 302.472 L 285.298 302.472 C 283.843 302.472 282.661 301.351 282.661 299.971 L 282.661 259.95 C 282.661 258.57 283.843 257.449 285.298 257.449 L 295.845 257.449 C 297.299 257.449 298.482 258.57 298.482 259.95 L 298.482 299.971 Z " fill="rgb(110,110,110)" fill-opacity="0.8"/>
        <path d=" M 232.563 302.472 L 224.653 302.472 L 224.653 249.945 C 224.653 245.8 221.112 242.441 216.743 242.441 L 200.922 242.441 C 196.553 242.441 193.012 245.8 193.012 249.945 C 193.012 254.089 196.553 257.449 200.922 257.449 L 208.832 257.449 L 208.832 302.472 L 200.922 302.472 C 196.553 302.472 193.012 305.832 193.012 309.976 C 193.012 314.121 196.553 317.48 200.922 317.48 L 232.563 317.48 C 236.932 317.48 240.473 314.121 240.473 309.976 C 240.473 305.832 236.932 302.472 232.563 302.472 Z " fill="rgb(110,110,110)"/>
        <path d=" M 74.358 45.354 L 63.812 45.354 C 53.633 45.354 45.354 53.208 45.354 62.864 L 45.354 102.885 C 45.354 112.54 53.633 120.394 63.812 120.394 L 74.358 120.394 C 84.537 120.394 92.816 112.54 92.816 102.885 L 92.816 62.864 C 92.816 53.208 84.537 45.354 74.358 45.354 Z  M 76.995 102.885 C 76.995 104.264 75.813 105.386 74.358 105.386 L 63.812 105.386 C 62.357 105.386 61.175 104.264 61.175 102.885 L 61.175 62.864 C 61.175 61.484 62.357 60.362 63.812 60.362 L 74.358 60.362 C 75.813 60.362 76.995 61.484 76.995 62.864 L 76.995 102.885 Z " fill="rgb(110,110,110)" fill-opacity="0.8"/>
        <path d=" M 158.734 105.386 L 150.824 105.386 L 150.824 52.858 C 150.824 48.714 147.283 45.354 142.914 45.354 L 127.093 45.354 C 122.724 45.354 119.183 48.714 119.183 52.858 C 119.183 57.003 122.724 60.362 127.093 60.362 L 135.004 60.362 L 135.004 105.386 L 127.093 105.386 C 122.724 105.386 119.183 108.745 119.183 112.89 C 119.183 117.035 122.724 120.394 127.093 120.394 L 158.734 120.394 C 163.103 120.394 166.644 117.035 166.644 112.89 C 166.644 108.745 163.103 105.386 158.734 105.386 Z " fill="rgb(110,110,110)"/>
        <path d=" M 295.845 45.354 L 285.298 45.354 C 275.12 45.354 266.841 53.208 266.841 62.864 L 266.841 102.885 C 266.841 112.54 275.12 120.394 285.298 120.394 L 295.845 120.394 C 306.023 120.394 314.302 112.54 314.302 102.885 L 314.302 62.864 C 314.302 53.208 306.023 45.354 295.845 45.354 Z  M 298.482 102.885 C 298.482 104.264 297.299 105.386 295.845 105.386 L 285.298 105.386 C 283.843 105.386 282.661 104.264 282.661 102.885 L 282.661 62.864 C 282.661 61.484 283.843 60.362 285.298 60.362 L 295.845 60.362 C 297.299 60.362 298.482 61.484 298.482 62.864 L 298.482 102.885 Z " fill="rgb(110,110,110)" fill-opacity="0.8"/>
        <path d=" M 232.563 105.386 L 224.653 105.386 L 224.653 52.858 C 224.653 48.714 221.112 45.354 216.743 45.354 L 200.922 45.354 C 196.553 45.354 193.012 48.714 193.012 52.858 C 193.012 57.003 196.553 60.362 200.922 60.362 L 208.832 60.362 L 208.832 105.386 L 200.922 105.386 C 196.553 105.386 193.012 108.745 193.012 112.89 C 193.012 117.035 196.553 120.394 200.922 120.394 L 232.563 120.394 C 236.932 120.394 240.473 117.035 240.473 112.89 C 240.473 108.745 236.932 105.386 232.563 105.386 Z " fill="rgb(110,110,110)"/>
        <path d=" M 147.669 140.297 L 137.122 140.297 C 126.944 140.297 118.665 148.15 118.665 157.806 L 118.665 197.827 C 118.665 207.482 126.944 215.336 137.122 215.336 L 147.669 215.336 C 157.848 215.336 166.127 207.482 166.127 197.827 L 166.127 157.806 C 166.127 148.15 157.848 140.297 147.669 140.297 Z  M 150.306 197.827 C 150.306 199.207 149.124 200.328 147.669 200.328 L 137.122 200.328 C 135.668 200.328 134.486 199.207 134.486 197.827 L 134.486 157.806 C 134.486 156.426 135.668 155.304 137.122 155.304 L 147.669 155.304 C 149.124 155.304 150.306 156.426 150.306 157.806 L 150.306 197.827 Z " fill="rgb(110,110,110)" fill-opacity="0.8"/>
        <path d=" M 84.905 200.328 L 76.995 200.328 L 76.995 147.801 C 76.995 143.656 73.454 140.297 69.085 140.297 L 53.265 140.297 C 48.895 140.297 45.354 143.656 45.354 147.801 C 45.354 151.945 48.895 155.304 53.265 155.304 L 61.175 155.304 L 61.175 200.328 L 53.265 200.328 C 48.895 200.328 45.354 203.687 45.354 207.832 C 45.354 211.977 48.895 215.336 53.265 215.336 L 84.905 215.336 C 89.275 215.336 92.816 211.977 92.816 207.832 C 92.816 203.687 89.275 200.328 84.905 200.328 Z " fill="rgb(110,110,110)"/>
        <path d=" M 222.016 140.297 L 211.469 140.297 C 201.291 140.297 193.012 148.15 193.012 157.806 L 193.012 197.827 C 193.012 207.482 201.291 215.336 211.469 215.336 L 222.016 215.336 C 232.194 215.336 240.473 207.482 240.473 197.827 L 240.473 157.806 C 240.473 148.15 232.194 140.297 222.016 140.297 Z  M 224.653 197.827 C 224.653 199.207 223.47 200.328 222.016 200.328 L 211.469 200.328 C 210.015 200.328 208.832 199.207 208.832 197.827 L 208.832 157.806 C 208.832 156.426 210.015 155.304 211.469 155.304 L 222.016 155.304 C 223.47 155.304 224.653 156.426 224.653 157.806 L 224.653 197.827 Z " fill="rgb(110,110,110)" fill-opacity="0.8"/>
        <path d=" M 309.57 204.421 L 301.66 204.421 L 301.66 151.893 C 301.66 147.748 298.119 144.389 293.75 144.389 L 277.929 144.389 C 273.56 144.389 270.019 147.748 270.019 151.893 C 270.019 156.038 273.56 159.397 277.929 159.397 L 285.839 159.397 L 285.839 204.421 L 277.929 204.421 C 273.56 204.421 270.019 207.78 270.019 211.925 C 270.019 216.069 273.56 219.429 277.929 219.429 L 309.57 219.429 C 313.939 219.429 317.48 216.069 317.48 211.925 C 317.48 207.78 313.939 204.421 309.57 204.421 Z " fill="rgb(110,110,110)"/>
    </g>
</svg>
