<?xml version="1.0" encoding="UTF-8" standalone="no"?>
<!DOCTYPE svg PUBLIC "-//W3C//DTD SVG 1.1//EN" "http://www.w3.org/Graphics/SVG/1.1/DTD/svg11.dtd">
<svg xmlns="http://www.w3.org/2000/svg" xmlns:xlink="http://www.w3.org/1999/xlink" style="isolation:isolate" viewBox="0 0 566.929 566.929" width="566.929pt" height="566.929pt">
    <rect x="0" y="0" width="600" height="800" fill="#EEEEEE">
    </rect>
    <defs>
        <clipPath>
            <rect width="566.929" height="566.929"/>
        </clipPath>
    </defs>
    <g>
        <rect width="566.929" height="566.929" style="fill:rgba(0,0,0,0)" />
        <g>
            <g>
                <path d=" M 248.85 347.031 L 237.863 347.031 C 227.261 347.031 218.637 355.212 218.637 365.269 L 218.637 406.958 C 218.637 417.016 227.261 425.197 237.863 425.197 L 248.85 425.197 C 259.452 425.197 268.076 417.016 268.076 406.958 L 268.076 365.269 C 268.076 355.212 259.452 347.031 248.85 347.031 Z  M 251.597 406.958 C 251.597 408.395 250.365 409.564 248.85 409.564 L 237.863 409.564 C 236.349 409.564 235.117 408.395 235.117 406.958 L 235.117 365.269 C 235.117 363.832 236.349 362.664 237.863 362.664 L 248.85 362.664 C 250.365 362.664 251.597 363.832 251.597 365.269 L 251.597 406.958 Z " fill="rgb(110,110,110)" fill-opacity="0.8"/>
                <path d=" M 182.931 409.564 L 174.692 409.564 L 174.692 354.847 C 174.692 350.53 171.003 347.031 166.452 347.031 L 149.972 347.031 C 145.421 347.031 141.732 350.53 141.732 354.847 C 141.732 359.165 145.421 362.664 149.972 362.664 L 158.212 362.664 L 158.212 409.564 L 149.972 409.564 C 145.421 409.564 141.732 413.063 141.732 417.38 C 141.732 421.698 145.421 425.197 149.972 425.197 L 182.931 425.197 C 187.483 425.197 191.171 421.698 191.171 417.38 C 191.171 413.063 187.483 409.564 182.931 409.564 Z " fill="rgb(110,110,110)"/>
                <path d=" M 402.66 347.031 L 391.673 347.031 C 381.071 347.031 372.447 355.212 372.447 365.269 L 372.447 406.958 C 372.447 417.016 381.071 425.197 391.673 425.197 L 402.66 425.197 C 413.262 425.197 421.886 417.016 421.886 406.958 L 421.886 365.269 C 421.886 355.212 413.262 347.031 402.66 347.031 Z  M 405.406 406.958 C 405.406 408.395 404.175 409.564 402.66 409.564 L 391.673 409.564 C 390.158 409.564 388.927 408.395 388.927 406.958 L 388.927 365.269 C 388.927 363.832 390.158 362.664 391.673 362.664 L 402.66 362.664 C 404.175 362.664 405.406 363.832 405.406 365.269 L 405.406 406.958 Z " fill="rgb(110,110,110)" fill-opacity="0.8"/>
                <path d=" M 336.741 409.564 L 328.501 409.564 L 328.501 354.847 C 328.501 350.53 324.813 347.031 320.262 347.031 L 303.782 347.031 C 299.231 347.031 295.542 350.53 295.542 354.847 C 295.542 359.165 299.231 362.664 303.782 362.664 L 312.022 362.664 L 312.022 409.564 L 303.782 409.564 C 299.231 409.564 295.542 413.063 295.542 417.38 C 295.542 421.698 299.231 425.197 303.782 425.197 L 336.741 425.197 C 341.293 425.197 344.981 421.698 344.981 417.38 C 344.981 413.063 341.293 409.564 336.741 409.564 Z " fill="rgb(110,110,110)"/>
                <path d=" M 171.945 141.732 L 160.959 141.732 C 150.356 141.732 141.732 149.913 141.732 159.971 L 141.732 201.66 C 141.732 211.718 150.356 219.899 160.959 219.899 L 171.945 219.899 C 182.547 219.899 191.171 211.718 191.171 201.66 L 191.171 159.971 C 191.171 149.913 182.547 141.732 171.945 141.732 Z  M 174.692 201.66 C 174.692 203.097 173.46 204.265 171.945 204.265 L 160.959 204.265 C 159.444 204.265 158.212 203.097 158.212 201.66 L 158.212 159.971 C 158.212 158.534 159.444 157.366 160.959 157.366 L 171.945 157.366 C 173.46 157.366 174.692 158.534 174.692 159.971 L 174.692 201.66 Z " fill="rgb(110,110,110)" fill-opacity="0.8"/>
                <path d=" M 259.836 204.265 L 251.597 204.265 L 251.597 149.549 C 251.597 145.231 247.908 141.732 243.357 141.732 L 226.877 141.732 C 222.326 141.732 218.637 145.231 218.637 149.549 C 218.637 153.866 222.326 157.366 226.877 157.366 L 235.117 157.366 L 235.117 204.265 L 226.877 204.265 C 222.326 204.265 218.637 207.765 218.637 212.082 C 218.637 216.399 222.326 219.899 226.877 219.899 L 259.836 219.899 C 264.388 219.899 268.076 216.399 268.076 212.082 C 268.076 207.765 264.388 204.265 259.836 204.265 Z " fill="rgb(110,110,110)"/>
                <path d=" M 402.66 141.732 L 391.673 141.732 C 381.071 141.732 372.447 149.913 372.447 159.971 L 372.447 201.66 C 372.447 211.718 381.071 219.899 391.673 219.899 L 402.66 219.899 C 413.262 219.899 421.886 211.718 421.886 201.66 L 421.886 159.971 C 421.886 149.913 413.262 141.732 402.66 141.732 Z  M 405.406 201.66 C 405.406 203.097 404.175 204.265 402.66 204.265 L 391.673 204.265 C 390.158 204.265 388.927 203.097 388.927 201.66 L 388.927 159.971 C 388.927 158.534 390.158 157.366 391.673 157.366 L 402.66 157.366 C 404.175 157.366 405.406 158.534 405.406 159.971 L 405.406 201.66 Z " fill="rgb(110,110,110)" fill-opacity="0.8"/>
                <path d=" M 336.741 204.265 L 328.501 204.265 L 328.501 149.549 C 328.501 145.231 324.813 141.732 320.262 141.732 L 303.782 141.732 C 299.231 141.732 295.542 145.231 295.542 149.549 C 295.542 153.866 299.231 157.366 303.782 157.366 L 312.022 157.366 L 312.022 204.265 L 303.782 204.265 C 299.231 204.265 295.542 207.765 295.542 212.082 C 295.542 216.399 299.231 219.899 303.782 219.899 L 336.741 219.899 C 341.293 219.899 344.981 216.399 344.981 212.082 C 344.981 207.765 341.293 204.265 336.741 204.265 Z " fill="rgb(110,110,110)"/><path d=" M 248.31 240.63 L 237.324 240.63 C 226.722 240.63 218.098 248.811 218.098 258.869 L 218.098 300.558 C 218.098 310.616 226.722 318.797 237.324 318.797 L 248.31 318.797 C 258.913 318.797 267.537 310.616 267.537 300.558 L 267.537 258.869 C 267.537 248.811 258.913 240.63 248.31 240.63 Z  M 251.057 300.558 C 251.057 301.995 249.825 303.163 248.31 303.163 L 237.324 303.163 C 235.809 303.163 234.577 301.995 234.577 300.558 L 234.577 258.869 C 234.577 257.432 235.809 256.264 237.324 256.264 L 248.31 256.264 C 249.825 256.264 251.057 257.432 251.057 258.869 L 251.057 300.558 Z " fill="rgb(110,110,110)" fill-opacity="0.8"/><path d=" M 182.931 303.163 L 174.692 303.163 L 174.692 248.447 C 174.692 244.13 171.003 240.63 166.452 240.63 L 149.972 240.63 C 145.421 240.63 141.732 244.13 141.732 248.447 C 141.732 252.765 145.421 256.264 149.972 256.264 L 158.212 256.264 L 158.212 303.163 L 149.972 303.163 C 145.421 303.163 141.732 306.663 141.732 310.98 C 141.732 315.298 145.421 318.797 149.972 318.797 L 182.931 318.797 C 187.483 318.797 191.171 315.298 191.171 310.98 C 191.171 306.663 187.483 303.163 182.931 303.163 Z " fill="rgb(110,110,110)"/><path d=" M 325.755 240.63 L 314.768 240.63 C 304.166 240.63 295.542 248.811 295.542 258.869 L 295.542 300.558 C 295.542 310.616 304.166 318.797 314.768 318.797 L 325.755 318.797 C 336.357 318.797 344.981 310.616 344.981 300.558 L 344.981 258.869 C 344.981 248.811 336.357 240.63 325.755 240.63 Z  M 328.501 300.558 C 328.501 301.995 327.27 303.163 325.755 303.163 L 314.768 303.163 C 313.254 303.163 312.022 301.995 312.022 300.558 L 312.022 258.869 C 312.022 257.432 313.254 256.264 314.768 256.264 L 325.755 256.264 C 327.27 256.264 328.501 257.432 328.501 258.869 L 328.501 300.558 Z " fill="rgb(110,110,110)" fill-opacity="0.8"/><path d=" M 416.957 307.426 L 408.717 307.426 L 408.717 252.71 C 408.717 248.392 405.029 244.893 400.477 244.893 L 383.998 244.893 C 379.447 244.893 375.758 248.392 375.758 252.71 C 375.758 257.027 379.447 260.526 383.998 260.526 L 392.238 260.526 L 392.238 307.426 L 383.998 307.426 C 379.447 307.426 375.758 310.925 375.758 315.243 C 375.758 319.56 379.447 323.06 383.998 323.06 L 416.957 323.06 C 421.508 323.06 425.197 319.56 425.197 315.243 C 425.197 310.925 421.508 307.426 416.957 307.426 Z " fill="rgb(110,110,110)"/>
            </g>
        </g>
    </g>
</svg>
